<?xml version="1.0" standalone="no"?>
<!DOCTYPE svg PUBLIC "-//W3C//DTD SVG 20010904//EN"
 "http://www.w3.org/TR/2001/REC-SVG-20010904/DTD/svg10.dtd">
<svg version="1.0" xmlns="http://www.w3.org/2000/svg"
 width="512.000000pt" height="512.000000pt" viewBox="0 0 512.000000 512.000000"
 preserveAspectRatio="xMidYMid meet">

<g transform="translate(0.000000,512.000000) scale(0.100000,-0.100000)"
fill="#000000" stroke="none">
<path d="M1891 5100 c-24 -11 -58 -35 -75 -54 -24 -25 -43 -34 -80 -39 -87
-12 -168 -74 -201 -154 -8 -20 -15 -63 -15 -97 0 -49 6 -71 30 -113 49 -85 38
-83 450 -83 412 0 401 -2 450 83 24 42 30 63 30 115 0 73 -15 114 -60 166 -41
46 -95 74 -157 83 -36 5 -55 14 -79 39 -46 49 -107 74 -184 74 -44 0 -79 -7
-109 -20z m166 -172 c11 -13 24 -33 28 -46 11 -38 49 -55 105 -48 80 11 130
-28 118 -91 -3 -17 -21 -18 -308 -18 l-305 0 -3 32 c-2 24 3 39 23 59 24 24
30 25 86 19 67 -8 102 7 114 47 13 42 46 68 85 68 25 0 43 -7 57 -22z"/>
<path d="M607 5025 c-52 -20 -118 -69 -146 -110 -22 -33 -27 -35 -77 -35 -245
0 -395 -295 -248 -488 58 -75 31 -72 584 -72 559 0 528 -4 589 80 42 58 54
101 49 183 -8 165 -127 286 -290 295 -64 4 -69 6 -88 37 -26 43 -80 83 -141
106 -59 23 -176 24 -232 4z m194 -178 c19 -12 44 -42 56 -67 37 -74 53 -82
147 -75 71 6 85 4 114 -14 65 -41 89 -119 57 -181 l-16 -30 -439 0 -439 0 -16
30 c-32 62 -8 140 57 181 29 18 43 19 118 14 97 -7 102 -4 143 76 29 58 77 89
137 89 32 0 58 -7 81 -23z"/>
<path d="M3630 4785 c-100 -31 -212 -137 -246 -235 -24 -69 -27 -72 -72 -85
-97 -29 -189 -111 -240 -215 -25 -50 -27 -65 -27 -170 0 -105 2 -120 27 -170
15 -30 42 -73 60 -94 43 -52 136 -111 200 -126 46 -12 61 -23 131 -96 107
-114 185 -154 298 -154 l79 0 0 -160 0 -160 -400 0 -400 0 0 160 0 160 60 0
c76 0 100 20 100 82 0 42 -1 44 -298 340 l-297 298 -363 0 -362 0 -322 -281
c-178 -155 -331 -290 -340 -301 -25 -28 -24 -92 2 -118 16 -16 33 -20 80 -20
l60 0 0 -160 0 -160 -660 0 c-647 0 -660 0 -680 -20 -19 -19 -20 -33 -20 -375
0 -196 5 -399 11 -453 61 -569 327 -1118 739 -1530 400 -400 927 -657 1490
-727 144 -17 455 -20 598 -4 273 29 557 110 824 233 l77 35 83 -82 c148 -147
299 -204 516 -195 165 7 283 52 401 153 154 132 241 320 241 523 0 149 -63
324 -155 429 -42 48 -45 55 -45 108 0 48 6 69 39 129 125 227 222 511 273 800
19 106 22 170 25 528 5 401 4 407 -16 427 -21 21 -29 21 -401 21 l-380 0 0
160 0 160 53 0 c98 0 207 42 267 101 18 18 44 57 59 87 23 49 31 56 78 72 103
36 180 106 230 210 34 71 44 208 20 291 -32 107 -135 219 -237 255 -69 24 -70
25 -90 81 -36 102 -106 180 -209 230 -41 21 -73 28 -139 31 -109 6 -176 -10
-252 -59 l-60 -39 -54 36 c-29 19 -75 42 -101 50 -60 18 -195 17 -255 -1z
m220 -171 c25 -10 62 -40 95 -77 50 -56 58 -62 95 -62 37 0 45 6 95 62 62 69
110 93 188 93 122 -1 212 -87 231 -223 9 -61 32 -84 93 -93 138 -19 223 -109
223 -234 0 -125 -85 -215 -223 -234 -62 -9 -85 -32 -93 -96 -12 -87 -58 -125
-169 -139 l-65 -7 0 108 c0 122 -12 163 -63 217 -47 49 -100 71 -177 71 -77 0
-130 -22 -177 -71 -50 -53 -63 -95 -63 -208 0 -112 0 -111 -79 -111 -62 0
-125 41 -192 124 -28 34 -58 71 -68 83 -12 14 -35 24 -67 28 -137 20 -223 109
-224 233 0 126 88 219 223 237 61 8 84 31 92 92 14 94 62 166 140 206 39 21
134 21 185 1z m-1135 -814 l200 -200 -235 0 -235 0 -155 177 c-85 97 -163 187
-173 200 l-18 23 208 0 208 0 200 -200z m-631 -50 l126 -145 -175 -3 c-96 -1
-254 -1 -351 0 l-176 3 198 173 198 173 27 -28 c15 -15 84 -93 153 -173z
m2036 70 c35 -19 40 -63 40 -386 l0 -314 -80 0 -80 0 0 314 c0 317 4 358 37
384 20 14 57 16 83 2z m-1880 -540 l0 -160 -360 0 -360 0 0 160 0 160 360 0
360 0 0 -160z m640 0 l0 -160 -240 0 -240 0 0 160 0 160 240 0 240 0 0 -160z
m2080 -475 l0 -155 -114 0 -115 0 -53 53 c-38 38 -71 61 -113 76 -56 21 -72
22 -280 19 -219 -3 -220 -3 -274 -31 -29 -16 -72 -48 -96 -73 l-43 -44 -855 0
c-825 0 -857 -1 -919 -20 -80 -25 -172 -83 -222 -141 -20 -24 -54 -78 -74
-119 -37 -75 -37 -76 -37 -205 0 -129 0 -130 37 -208 50 -105 130 -185 235
-235 l78 -37 215 -5 c143 -4 222 -9 237 -18 38 -21 63 -62 63 -103 l0 -39
-107 0 c-123 0 -166 -15 -220 -71 -45 -48 -63 -98 -63 -174 0 -113 -35 -159
-106 -141 -35 9 -54 59 -54 141 0 76 -18 126 -63 174 -53 56 -98 71 -215 71
-116 0 -157 -12 -211 -63 -49 -47 -71 -100 -71 -178 0 -90 -15 -128 -56 -145
-40 -17 -80 -18 -124 -3 -42 15 -60 58 -60 146 -1 108 -52 190 -142 227 -51
22 -225 22 -276 0 -90 -37 -141 -119 -142 -227 0 -37 -6 -83 -14 -101 -13 -32
-46 -53 -64 -42 -39 24 -302 488 -302 533 0 11 72 13 380 13 420 0 423 0 489
63 48 46 71 101 71 175 0 73 -19 124 -63 171 -54 57 -97 71 -220 71 -157 0
-203 26 -183 106 12 48 48 54 343 54 299 0 316 4 380 71 44 47 63 97 63 169 0
101 -49 181 -135 221 -38 17 -78 19 -672 19 l-633 0 0 80 0 80 2400 0 2400 0
0 -155z m-3575 -179 c37 -16 52 -48 41 -92 -12 -48 -48 -54 -343 -54 -299 0
-316 -4 -380 -71 -44 -47 -63 -97 -63 -169 0 -72 19 -122 63 -169 54 -57 97
-71 220 -71 157 0 203 -26 183 -106 -13 -51 -40 -54 -453 -52 l-377 3 -18 60
c-48 159 -82 382 -93 618 l-5 117 595 0 c495 0 601 -2 630 -14z m3133 -16 c24
-13 53 -40 65 -60 l22 -35 5 -716 5 -715 52 -58 c184 -207 190 -486 15 -687
-97 -110 -229 -169 -381 -169 -167 0 -304 70 -406 205 -146 195 -130 460 39
644 l56 61 0 702 c0 660 2 705 19 743 20 45 70 92 104 100 12 2 31 6 42 9 11
3 88 4 170 3 139 -2 153 -4 193 -27z m-698 -792 c0 -750 6 -698 -80 -698 -108
0 -140 36 -140 155 0 76 -18 126 -63 174 -53 56 -98 71 -215 71 -116 0 -157
-12 -211 -63 -50 -47 -71 -100 -71 -180 0 -114 -33 -157 -120 -157 -86 0 -120
44 -120 152 0 34 -7 81 -16 104 -14 37 -14 44 0 79 10 22 16 66 16 109 0 117
-59 209 -164 257 -35 16 -67 19 -206 19 -251 0 -327 19 -409 101 -58 58 -85
120 -89 206 -6 106 16 163 92 238 102 100 30 93 974 94 l822 1 0 -662z m1130
620 c0 -144 -52 -421 -116 -619 -25 -76 -47 -139 -49 -139 -3 0 -5 180 -5 400
l0 400 85 0 85 0 0 -42z m-3886 -1092 c41 -17 56 -55 56 -145 1 -105 53 -188
142 -225 51 -22 225 -22 276 0 89 37 141 120 142 225 0 90 15 128 56 145 42
18 86 18 128 0 41 -17 56 -55 56 -143 0 -147 94 -243 240 -243 146 0 240 96
240 243 0 35 5 79 11 97 28 80 190 80 218 0 6 -18 11 -62 11 -97 0 -74 18
-125 63 -172 54 -56 97 -71 217 -71 120 0 163 15 217 71 45 48 63 98 63 174 0
112 34 155 120 155 87 0 120 -43 120 -157 0 -45 7 -82 19 -108 35 -74 120
-135 191 -135 36 0 36 0 10 -68 -11 -29 -25 -94 -31 -145 -11 -90 -6 -149 27
-288 5 -24 0 -28 -96 -72 -310 -144 -646 -218 -996 -218 -383 -1 -723 77
-1063 244 -231 113 -483 297 -659 481 l-84 87 42 37 c57 48 80 100 80 183 0
36 5 81 11 99 19 54 102 76 173 46z"/>
<path d="M4226 2396 c-21 -8 -54 -29 -72 -47 -67 -65 -64 -34 -64 -706 l0
-610 -44 -31 c-25 -18 -63 -60 -85 -93 -57 -85 -74 -151 -69 -258 7 -142 75
-259 191 -329 213 -128 493 -47 593 173 77 168 42 351 -93 482 l-63 61 0 600
0 600 -28 53 c-49 95 -168 141 -266 105z m106 -173 c17 -15 18 -49 18 -648 0
-490 3 -635 13 -647 6 -8 28 -25 49 -37 88 -53 147 -163 132 -248 -10 -56 -52
-129 -92 -160 -103 -78 -226 -70 -317 22 -78 78 -96 174 -51 270 25 55 43 73
114 119 l47 31 5 643 c5 623 6 644 24 658 25 18 35 18 58 -3z"/>
<path d="M1620 4460 c-17 -17 -20 -33 -20 -100 0 -96 16 -120 80 -120 64 0 80
24 80 120 0 96 -16 120 -80 120 -27 0 -47 -7 -60 -20z"/>
<path d="M1940 4460 c-17 -17 -20 -33 -20 -100 0 -96 16 -120 80 -120 64 0 80
24 80 120 0 96 -16 120 -80 120 -27 0 -47 -7 -60 -20z"/>
<path d="M2260 4460 c-17 -17 -20 -33 -20 -100 0 -96 16 -120 80 -120 64 0 80
24 80 120 0 96 -16 120 -80 120 -27 0 -47 -7 -60 -20z"/>
<path d="M180 4140 c-17 -17 -20 -33 -20 -100 0 -96 16 -120 80 -120 64 0 80
24 80 120 0 96 -16 120 -80 120 -27 0 -47 -7 -60 -20z"/>
<path d="M500 4140 c-18 -18 -20 -33 -20 -180 0 -147 2 -162 20 -180 13 -13
33 -20 60 -20 27 0 47 7 60 20 18 18 20 33 20 180 0 147 -2 162 -20 180 -13
13 -33 20 -60 20 -27 0 -47 -7 -60 -20z"/>
<path d="M820 4140 c-18 -18 -20 -33 -20 -140 0 -140 10 -160 80 -160 70 0 80
20 80 160 0 140 -10 160 -80 160 -27 0 -47 -7 -60 -20z"/>
<path d="M1140 4140 c-18 -18 -20 -33 -20 -140 0 -140 10 -160 80 -160 70 0
80 20 80 160 0 140 -10 160 -80 160 -27 0 -47 -7 -60 -20z"/>
<path d="M180 3820 c-18 -18 -20 -33 -20 -180 0 -147 2 -162 20 -180 13 -13
33 -20 60 -20 27 0 47 7 60 20 18 18 20 33 20 180 0 147 -2 162 -20 180 -13
13 -33 20 -60 20 -27 0 -47 -7 -60 -20z"/>
<path d="M820 3740 c-18 -18 -20 -33 -20 -140 0 -140 10 -160 80 -160 70 0 80
20 80 160 0 140 -10 160 -80 160 -27 0 -47 -7 -60 -20z"/>
<path d="M500 3660 c-17 -17 -20 -33 -20 -100 0 -96 16 -120 80 -120 64 0 80
24 80 120 0 96 -16 120 -80 120 -27 0 -47 -7 -60 -20z"/>
</g>
</svg>
